TITLE ""
FILE "LR_black_phrase_E_A06.mp3" MP3
  TRACK 01 AUDIO
    TITLE "LR_black_phrase_E_A06_001"
    INDEX 01 00:00:00
  TRACK 02 AUDIO
    TITLE "LR_black_phrase_E_A06_002"
    INDEX 01 00:00:18
  TRACK 03 AUDIO
    TITLE "LR_black_phrase_E_A06_003"
    INDEX 01 00:01:39
  TRACK 04 AUDIO
    TITLE "LR_black_phrase_E_A06_004"
    INDEX 01 00:01:67
  TRACK 05 AUDIO
    TITLE "LR_black_phrase_E_A06_005"
    INDEX 01 00:03:54
  TRACK 06 AUDIO
    TITLE "LR_black_phrase_E_A06_006"
    INDEX 01 00:04:32
  TRACK 07 AUDIO
    TITLE "LR_black_phrase_E_A06_007"
    INDEX 01 00:06:19
  TRACK 08 AUDIO
    TITLE "LR_black_phrase_E_A06_008"
    INDEX 01 00:07:22
  TRACK 09 AUDIO
    TITLE "LR_black_phrase_E_A06_009"
    INDEX 01 00:08:45
  TRACK 10 AUDIO
    TITLE "LR_black_phrase_E_A06_010"
    INDEX 01 00:08:74
  TRACK 11 AUDIO
    TITLE "LR_black_phrase_E_A06_011"
    INDEX 01 00:11:34
  TRACK 12 AUDIO
    TITLE "LR_black_phrase_E_A06_012"
    INDEX 01 00:12:12
  TRACK 13 AUDIO
    TITLE "LR_black_phrase_E_A06_013"
    INDEX 01 00:14:46
  TRACK 14 AUDIO
    TITLE "LR_black_phrase_E_A06_014"
    INDEX 01 00:15:49
  TRACK 15 AUDIO
    TITLE "LR_black_phrase_E_A06_015"
    INDEX 01 00:16:60
  TRACK 16 AUDIO
    TITLE "LR_black_phrase_E_A06_016"
    INDEX 01 00:17:15
  TRACK 17 AUDIO
    TITLE "LR_black_phrase_E_A06_017"
    INDEX 01 00:19:55
  TRACK 18 AUDIO
    TITLE "LR_black_phrase_E_A06_018"
    INDEX 01 00:20:33
  TRACK 19 AUDIO
    TITLE "LR_black_phrase_E_A06_019"
    INDEX 01 00:22:71
  TRACK 20 AUDIO
    TITLE "LR_black_phrase_E_A06_020"
    INDEX 01 00:23:70
  TRACK 21 AUDIO
    TITLE "LR_black_phrase_E_A06_021"
    INDEX 01 00:25:06
  TRACK 22 AUDIO
    TITLE "LR_black_phrase_E_A06_022"
    INDEX 01 00:25:28
  TRACK 23 AUDIO
    TITLE "LR_black_phrase_E_A06_023"
    INDEX 01 00:27:42
  TRACK 24 AUDIO
    TITLE "LR_black_phrase_E_A06_024"
    INDEX 01 00:28:13
  TRACK 25 AUDIO
    TITLE "LR_black_phrase_E_A06_025"
    INDEX 01 00:30:27
  TRACK 26 AUDIO
    TITLE "LR_black_phrase_E_A06_026"
    INDEX 01 00:31:25
  TRACK 27 AUDIO
    TITLE "LR_black_phrase_E_A06_027"
    INDEX 01 00:32:30
  TRACK 28 AUDIO
    TITLE "LR_black_phrase_E_A06_028"
    INDEX 01 00:32:49
  TRACK 29 AUDIO
    TITLE "LR_black_phrase_E_A06_029"
    INDEX 01 00:35:15
  TRACK 30 AUDIO
    TITLE "LR_black_phrase_E_A06_030"
    INDEX 01 00:35:60
  TRACK 31 AUDIO
    TITLE "LR_black_phrase_E_A06_031"
    INDEX 01 00:38:25
  TRACK 32 AUDIO
    TITLE "LR_black_phrase_E_A06_032"
    INDEX 01 00:39:20
  TRACK 33 AUDIO
    TITLE "LR_black_phrase_E_A06_033"
    INDEX 01 00:40:27
  TRACK 34 AUDIO
    TITLE "LR_black_phrase_E_A06_034"
    INDEX 01 00:40:47
  TRACK 35 AUDIO
    TITLE "LR_black_phrase_E_A06_035"
    INDEX 01 00:43:40
  TRACK 36 AUDIO
    TITLE "LR_black_phrase_E_A06_036"
    INDEX 01 00:44:10
  TRACK 37 AUDIO
    TITLE "LR_black_phrase_E_A06_037"
    INDEX 01 00:47:02
  TRACK 38 AUDIO
    TITLE "LR_black_phrase_E_A06_038"
    INDEX 01 00:48:05
  TRACK 39 AUDIO
    TITLE "LR_black_phrase_E_A06_039"
    INDEX 01 00:49:22
  TRACK 40 AUDIO
    TITLE "LR_black_phrase_E_A06_040"
    INDEX 01 00:49:52
  TRACK 41 AUDIO
    TITLE "LR_black_phrase_E_A06_041"
    INDEX 01 00:52:38
  TRACK 42 AUDIO
    TITLE "LR_black_phrase_E_A06_042"
    INDEX 01 00:53:16
  TRACK 43 AUDIO
    TITLE "LR_black_phrase_E_A06_043"
    INDEX 01 00:56:03
  TRACK 44 AUDIO
    TITLE "LR_black_phrase_E_A06_044"
    INDEX 01 00:57:08
  TRACK 45 AUDIO
    TITLE "LR_black_phrase_E_A06_045"
    INDEX 01 00:58:16
  TRACK 46 AUDIO
    TITLE "LR_black_phrase_E_A06_046"
    INDEX 01 00:58:47
  TRACK 47 AUDIO
    TITLE "LR_black_phrase_E_A06_047"
    INDEX 01 01:00:75
  TRACK 48 AUDIO
    TITLE "LR_black_phrase_E_A06_048"
    INDEX 01 01:01:55
  TRACK 49 AUDIO
    TITLE "LR_black_phrase_E_A06_049"
    INDEX 01 01:04:06
  TRACK 50 AUDIO
    TITLE "LR_black_phrase_E_A06_050"
    INDEX 01 01:05:12
  TRACK 51 AUDIO
    TITLE "LR_black_phrase_E_A06_051"
    INDEX 01 01:06:37
  TRACK 52 AUDIO
    TITLE "LR_black_phrase_E_A06_052"
    INDEX 01 01:06:66
  TRACK 53 AUDIO
    TITLE "LR_black_phrase_E_A06_053"
    INDEX 01 01:09:04
  TRACK 54 AUDIO
    TITLE "LR_black_phrase_E_A06_054"
    INDEX 01 01:09:60
  TRACK 55 AUDIO
    TITLE "LR_black_phrase_E_A06_055"
    INDEX 01 01:11:75
  TRACK 56 AUDIO
    TITLE "LR_black_phrase_E_A06_056"
    INDEX 01 01:12:74
  TRACK 57 AUDIO
    TITLE "LR_black_phrase_E_A06_057"
    INDEX 01 01:14:20
  TRACK 58 AUDIO
    TITLE "LR_black_phrase_E_A06_058"
    INDEX 01 01:14:42
  TRACK 59 AUDIO
    TITLE "LR_black_phrase_E_A06_059"
    INDEX 01 01:16:72
  TRACK 60 AUDIO
    TITLE "LR_black_phrase_E_A06_060"
    INDEX 01 01:17:48
  TRACK 61 AUDIO
    TITLE "LR_black_phrase_E_A06_061"
    INDEX 01 01:20:01
  TRACK 62 AUDIO
    TITLE "LR_black_phrase_E_A06_062"
    INDEX 01 01:21:03
  TRACK 63 AUDIO
    TITLE "LR_black_phrase_E_A06_063"
    INDEX 01 01:22:22
  TRACK 64 AUDIO
    TITLE "LR_black_phrase_E_A06_064"
    INDEX 01 01:22:42
  TRACK 65 AUDIO
    TITLE "LR_black_phrase_E_A06_065"
    INDEX 01 01:24:44
  TRACK 66 AUDIO
    TITLE "LR_black_phrase_E_A06_066"
    INDEX 01 01:25:14
  TRACK 67 AUDIO
    TITLE "LR_black_phrase_E_A06_067"
    INDEX 01 01:27:17
  TRACK 68 AUDIO
    TITLE "LR_black_phrase_E_A06_068"
    INDEX 01 01:28:13
  TRACK 69 AUDIO
    TITLE "LR_black_phrase_E_A06_069"
    INDEX 01 01:29:26
  TRACK 70 AUDIO
    TITLE "LR_black_phrase_E_A06_070"
    INDEX 01 01:29:45
  TRACK 71 AUDIO
    TITLE "LR_black_phrase_E_A06_071"
    INDEX 01 01:32:22
  TRACK 72 AUDIO
    TITLE "LR_black_phrase_E_A06_072"
    INDEX 01 01:32:65
  TRACK 73 AUDIO
    TITLE "LR_black_phrase_E_A06_073"
    INDEX 01 01:35:44
  TRACK 74 AUDIO
    TITLE "LR_black_phrase_E_A06_074"
    INDEX 01 01:36:44
  TRACK 75 AUDIO
    TITLE "LR_black_phrase_E_A06_075"
    INDEX 01 01:37:59
  TRACK 76 AUDIO
    TITLE "LR_black_phrase_E_A06_076"
    INDEX 01 01:38:11
  TRACK 77 AUDIO
    TITLE "LR_black_phrase_E_A06_077"
    INDEX 01 01:40:73
  TRACK 78 AUDIO
    TITLE "LR_black_phrase_E_A06_078"
    INDEX 01 01:41:53
  TRACK 79 AUDIO
    TITLE "LR_black_phrase_E_A06_079"
    INDEX 01 01:44:37
  TRACK 80 AUDIO
    TITLE "LR_black_phrase_E_A06_080"
    INDEX 01 01:45:43
  TRACK 81 AUDIO
    TITLE "LR_black_phrase_E_A06_081"
    INDEX 01 01:46:62
  TRACK 82 AUDIO
    TITLE "LR_black_phrase_E_A06_082"
    INDEX 01 01:47:14
  TRACK 83 AUDIO
    TITLE "LR_black_phrase_E_A06_083"
    INDEX 01 01:49:40
  TRACK 84 AUDIO
    TITLE "LR_black_phrase_E_A06_084"
    INDEX 01 01:50:22
  TRACK 85 AUDIO
    TITLE "LR_black_phrase_E_A06_085"
    INDEX 01 01:52:49
  TRACK 86 AUDIO
    TITLE "LR_black_phrase_E_A06_086"
    INDEX 01 01:53:54
  TRACK 87 AUDIO
    TITLE "LR_black_phrase_E_A06_087"
    INDEX 01 01:55:16
  TRACK 88 AUDIO
    TITLE "LR_black_phrase_E_A06_088"
    INDEX 01 01:55:45
  TRACK 89 AUDIO
    TITLE "LR_black_phrase_E_A06_089"
    INDEX 01 01:58:49
  TRACK 90 AUDIO
    TITLE "LR_black_phrase_E_A06_090"
    INDEX 01 01:59:25
  TRACK 91 AUDIO
    TITLE "LR_black_phrase_E_A06_091"
    INDEX 01 02:02:27
  TRACK 92 AUDIO
    TITLE "LR_black_phrase_E_A06_092"
    INDEX 01 02:03:25
  TRACK 93 AUDIO
    TITLE "LR_black_phrase_E_A06_093"
    INDEX 01 02:04:36
  TRACK 94 AUDIO
    TITLE "LR_black_phrase_E_A06_094"
    INDEX 01 02:04:58
  TRACK 95 AUDIO
    TITLE "LR_black_phrase_E_A06_095"
    INDEX 01 02:06:49
  TRACK 96 AUDIO
    TITLE "LR_black_phrase_E_A06_096"
    INDEX 01 02:07:21
  TRACK 97 AUDIO
    TITLE "LR_black_phrase_E_A06_097"
    INDEX 01 02:09:10
  TRACK 98 AUDIO
    TITLE "LR_black_phrase_E_A06_098"
    INDEX 01 02:10:05
  TRACK 99 AUDIO
    TITLE "LR_black_phrase_E_A06_099"
    INDEX 01 02:11:05
  TRACK 100 AUDIO
    TITLE "LR_black_phrase_E_A06_100"
    INDEX 01 02:11:24
  TRACK 101 AUDIO
    TITLE "LR_black_phrase_E_A06_101"
    INDEX 01 02:13:19
  TRACK 102 AUDIO
    TITLE "LR_black_phrase_E_A06_102"
    INDEX 01 02:13:64
  TRACK 103 AUDIO
    TITLE "LR_black_phrase_E_A06_103"
    INDEX 01 02:15:59
  TRACK 104 AUDIO
    TITLE "LR_black_phrase_E_A06_104"
    INDEX 01 02:16:55
  TRACK 105 AUDIO
    TITLE "LR_black_phrase_E_A06_105"
    INDEX 01 02:17:64
  TRACK 106 AUDIO
    TITLE "LR_black_phrase_E_A06_106"
    INDEX 01 02:18:09
  TRACK 107 AUDIO
    TITLE "LR_black_phrase_E_A06_107"
    INDEX 01 02:20:61
  TRACK 108 AUDIO
    TITLE "LR_black_phrase_E_A06_108"
    INDEX 01 02:21:31
  TRACK 109 AUDIO
    TITLE "LR_black_phrase_E_A06_109"
    INDEX 01 02:24:05
  TRACK 110 AUDIO
    TITLE "LR_black_phrase_E_A06_110"
    INDEX 01 02:25:07
  TRACK 111 AUDIO
    TITLE "LR_black_phrase_E_A06_111"
    INDEX 01 02:26:12
  TRACK 112 AUDIO
    TITLE "LR_black_phrase_E_A06_112"
    INDEX 01 02:26:42
  TRACK 113 AUDIO
    TITLE "LR_black_phrase_E_A06_113"
    INDEX 01 02:28:38
  TRACK 114 AUDIO
    TITLE "LR_black_phrase_E_A06_114"
    INDEX 01 02:29:18
  TRACK 115 AUDIO
    TITLE "LR_black_phrase_E_A06_115"
    INDEX 01 02:31:13
  TRACK 116 AUDIO
    TITLE "LR_black_phrase_E_A06_116"
    INDEX 01 02:32:19
  TRACK 117 AUDIO
    TITLE "LR_black_phrase_E_A06_117"
    INDEX 01 02:33:42
  TRACK 118 AUDIO
    TITLE "LR_black_phrase_E_A06_118"
    INDEX 01 02:33:73
  TRACK 119 AUDIO
    TITLE "LR_black_phrase_E_A06_119"
    INDEX 01 02:36:30
  TRACK 120 AUDIO
    TITLE "LR_black_phrase_E_A06_120"
    INDEX 01 02:37:10
  TRACK 121 AUDIO
    TITLE "LR_black_phrase_E_A06_121"
    INDEX 01 02:39:44
  TRACK 122 AUDIO
    TITLE "LR_black_phrase_E_A06_122"
    INDEX 01 02:40:48
  TRACK 123 AUDIO
    TITLE "LR_black_phrase_E_A06_123"
    INDEX 01 02:41:53
  TRACK 124 AUDIO
    TITLE "LR_black_phrase_E_A06_124"
    INDEX 01 02:42:07
  TRACK 125 AUDIO
    TITLE "LR_black_phrase_E_A06_125"
    INDEX 01 02:43:69
  TRACK 126 AUDIO
    TITLE "LR_black_phrase_E_A06_126"
    INDEX 01 02:44:47
  TRACK 127 AUDIO
    TITLE "LR_black_phrase_E_A06_127"
    INDEX 01 02:46:34
  TRACK 128 AUDIO
    TITLE "LR_black_phrase_E_A06_128"
    INDEX 01 02:47:34
  TRACK 129 AUDIO
    TITLE "LR_black_phrase_E_A06_129"
    INDEX 01 02:48:57
  TRACK 130 AUDIO
    TITLE "LR_black_phrase_E_A06_130"
    INDEX 01 02:49:03
  TRACK 131 AUDIO
    TITLE "LR_black_phrase_E_A06_131"
    INDEX 01 02:51:16
  TRACK 132 AUDIO
    TITLE "LR_black_phrase_E_A06_132"
    INDEX 01 02:51:59
  TRACK 133 AUDIO
    TITLE "LR_black_phrase_E_A06_133"
    INDEX 01 02:53:72
  TRACK 134 AUDIO
    TITLE "LR_black_phrase_E_A06_134"
    INDEX 01 02:54:67
  TRACK 135 AUDIO
    TITLE "LR_black_phrase_E_A06_135"
    INDEX 01 02:56:03
  TRACK 136 AUDIO
    TITLE "LR_black_phrase_E_A06_136"
    INDEX 01 02:56:25
  TRACK 137 AUDIO
    TITLE "LR_black_phrase_E_A06_137"
    INDEX 01 02:58:43
  TRACK 138 AUDIO
    TITLE "LR_black_phrase_E_A06_138"
    INDEX 01 02:59:12
  TRACK 139 AUDIO
    TITLE "LR_black_phrase_E_A06_139"
    INDEX 01 03:01:30
  TRACK 140 AUDIO
    TITLE "LR_black_phrase_E_A06_140"
    INDEX 01 03:02:24
  TRACK 141 AUDIO
    TITLE "LR_black_phrase_E_A06_141"
    INDEX 01 03:03:45
  TRACK 142 AUDIO
    TITLE "LR_black_phrase_E_A06_142"
    INDEX 01 03:03:66
  TRACK 143 AUDIO
    TITLE "LR_black_phrase_E_A06_143"
    INDEX 01 03:05:49
  TRACK 144 AUDIO
    TITLE "LR_black_phrase_E_A06_144"
    INDEX 01 03:06:19
  TRACK 145 AUDIO
    TITLE "LR_black_phrase_E_A06_145"
    INDEX 01 03:08:03
  TRACK 146 AUDIO
    TITLE "LR_black_phrase_E_A06_146"
    INDEX 01 03:09:04
  TRACK 147 AUDIO
    TITLE "LR_black_phrase_E_A06_147"
    INDEX 01 03:10:13
  TRACK 148 AUDIO
    TITLE "LR_black_phrase_E_A06_148"
    INDEX 01 03:10:45
  TRACK 149 AUDIO
    TITLE "LR_black_phrase_E_A06_149"
    INDEX 01 03:12:40
  TRACK 150 AUDIO
    TITLE "LR_black_phrase_E_A06_150"
    INDEX 01 03:13:22
  TRACK 151 AUDIO
    TITLE "LR_black_phrase_E_A06_151"
    INDEX 01 03:15:18
  TRACK 152 AUDIO
    TITLE "LR_black_phrase_E_A06_152"
    INDEX 01 03:16:22
  TRACK 153 AUDIO
    TITLE "LR_black_phrase_E_A06_153"
    INDEX 01 03:17:29
  TRACK 154 AUDIO
    TITLE "LR_black_phrase_E_A06_154"
    INDEX 01 03:17:60
  TRACK 155 AUDIO
    TITLE "LR_black_phrase_E_A06_155"
    INDEX 01 03:20:39
  TRACK 156 AUDIO
    TITLE "LR_black_phrase_E_A06_156"
    INDEX 01 03:21:17
  TRACK 157 AUDIO
    TITLE "LR_black_phrase_E_A06_157"
    INDEX 01 03:23:71
  TRACK 158 AUDIO
    TITLE "LR_black_phrase_E_A06_158"
    INDEX 01 03:24:74
  TRACK 159 AUDIO
    TITLE "LR_black_phrase_E_A06_159"
    INDEX 01 03:26:03
  TRACK 160 AUDIO
    TITLE "LR_black_phrase_E_A06_160"
    INDEX 01 03:26:30
  TRACK 161 AUDIO
    TITLE "LR_black_phrase_E_A06_161"
    INDEX 01 03:28:72
  TRACK 162 AUDIO
    TITLE "LR_black_phrase_E_A06_162"
    INDEX 01 03:29:52
  TRACK 163 AUDIO
    TITLE "LR_black_phrase_E_A06_163"
    INDEX 01 03:32:19
  TRACK 164 AUDIO
    TITLE "LR_black_phrase_E_A06_164"
    INDEX 01 03:33:22
  TRACK 165 AUDIO
    TITLE "LR_black_phrase_E_A06_165"
    INDEX 01 03:34:45
  TRACK 166 AUDIO
    TITLE "LR_black_phrase_E_A06_166"
    INDEX 01 03:34:65
  TRACK 167 AUDIO
    TITLE "LR_black_phrase_E_A06_167"
    INDEX 01 03:37:16
  TRACK 168 AUDIO
    TITLE "LR_black_phrase_E_A06_168"
    INDEX 01 03:37:63
  TRACK 169 AUDIO
    TITLE "LR_black_phrase_E_A06_169"
    INDEX 01 03:40:14
  TRACK 170 AUDIO
    TITLE "LR_black_phrase_E_A06_170"
    INDEX 01 03:41:10
  TRACK 171 AUDIO
    TITLE "LR_black_phrase_E_A06_171"
    INDEX 01 03:42:33
  TRACK 172 AUDIO
    TITLE "LR_black_phrase_E_A06_172"
    INDEX 01 03:42:60
  TRACK 173 AUDIO
    TITLE "LR_black_phrase_E_A06_173"
    INDEX 01 03:45:02
  TRACK 174 AUDIO
    TITLE "LR_black_phrase_E_A06_174"
    INDEX 01 03:45:53
  TRACK 175 AUDIO
    TITLE "LR_black_phrase_E_A06_175"
    INDEX 01 03:47:69
  TRACK 176 AUDIO
    TITLE "LR_black_phrase_E_A06_176"
    INDEX 01 03:48:65
  TRACK 177 AUDIO
    TITLE "LR_black_phrase_E_A06_177"
    INDEX 01 03:50:17
  TRACK 178 AUDIO
    TITLE "LR_black_phrase_E_A06_178"
    INDEX 01 03:50:44
  TRACK 179 AUDIO
    TITLE "LR_black_phrase_E_A06_179"
    INDEX 01 03:53:43
  TRACK 180 AUDIO
    TITLE "LR_black_phrase_E_A06_180"
    INDEX 01 03:54:20
  TRACK 181 AUDIO
    TITLE "LR_black_phrase_E_A06_181"
    INDEX 01 03:57:17
